<svg width="100" height="100" xmlns="http://www.w3.org/2000/svg">
 <g id="Layer_1">
  <title>Layer 1</title>
  <path stroke="#000" id="svg_3" d="m37.33326,77.85881c-2.51365,-1.55491 -2.18386,-2.49649 3.92757,-11.21274c3.08598,-4.40126 5.61085,-8.13019 5.61085,-8.28651c0,-0.15631 -8.52144,-0.28421 -18.9366,-0.28421l-18.9366,0l0,-8.24311l0,-8.24311l19.08668,0c14.71691,0 18.92238,-0.24832 18.36915,-1.08462c-0.39464,-0.59654 -3.08667,-4.55508 -5.98229,-8.79674c-5.45828,-7.99564 -5.45657,-10.13987 0.00843,-10.80451c2.71973,-0.33075 45.06261,25.08259 46.51802,27.9192c-14.10405,10.12825 -30.96316,20.72993 -46.49315,30.07759c-0.81886,0 -2.24627,-0.46856 -3.17207,-1.04124l0,0z" fill="#000000"/>
  <path id="svg_4" d="m52.59532,65.55847c-0.58007,-0.24128 -0.50397,-0.38739 0.90636,-1.73991c0.71215,-0.68295 1.29481,-1.26158 1.29481,-1.28584c0,-0.02425 -1.96649,-0.0441 -4.36999,-0.0441l-4.36999,0l0,-1.2791l0,-1.2791l4.40462,0c3.39621,0 4.3667,-0.03853 4.23903,-0.1683c-0.09107,-0.09257 -0.71231,-0.70682 -1.38053,-1.36501c-1.2596,-1.2407 -1.25921,-1.57343 0.00195,-1.67656c0.62763,-0.05132 10.39907,3.89213 10.73493,4.33229c-3.25478,1.57162 -7.14535,3.21671 -10.72919,4.66721c-0.18897,0 -0.51837,-0.07271 -0.73202,-0.16157l0,0z" stroke="#000" fill="#000000"/>
  <path stroke="#000" id="svg_5" d="m32.5748,55.71209c-0.03223,-0.02681 -0.028,-0.04304 0.05035,-0.19332c0.03956,-0.07588 0.07193,-0.14018 0.07193,-0.14287c0,-0.00269 -0.10925,-0.0049 -0.24278,-0.0049l-0.24278,0l0,-0.14212l0,-0.14212l0.2447,0c0.18868,0 0.24259,-0.00428 0.2355,-0.0187c-0.00506,-0.01029 -0.03957,-0.07854 -0.0767,-0.15167c-0.06998,-0.13786 -0.06996,-0.17483 0.00011,-0.18628c0.03487,-0.0057 0.57773,0.43246 0.59639,0.48137c-0.18082,0.17462 -0.39696,0.35741 -0.59607,0.51858c-0.0105,0 -0.0288,-0.00808 -0.04067,-0.01795l0,0z" fill="#000000"/>
 </g>
</svg>